<svg width="405" height="362" viewBox="0 0 405 362" fill="none" xmlns="http://www.w3.org/2000/svg">
<g opacity="0.15">
<path d="M268.401 173.014L114.878 262.602C114.341 262.915 113.701 263.002 113.099 262.845C112.498 262.687 111.983 262.298 111.669 261.762L12.9437 93.1111C12.6305 92.5746 12.5432 91.936 12.701 91.3353C12.8588 90.7346 13.2487 90.221 13.7854 89.907L167.308 0.31908C167.846 0.00634485 168.485 -0.0808183 169.087 0.076712C169.688 0.234242 170.203 0.623603 170.517 1.15937L269.242 169.81C269.556 170.347 269.643 170.985 269.485 171.586C269.327 172.187 268.937 172.7 268.401 173.014Z" fill="white"/>
<path d="M268.401 173.014L114.878 262.602C114.341 262.915 113.701 263.002 113.099 262.845C112.498 262.687 111.983 262.298 111.669 261.762L12.9437 93.1111C12.6305 92.5746 12.5432 91.936 12.701 91.3353C12.8588 90.7346 13.2487 90.221 13.7854 89.907L167.308 0.31908C167.846 0.00634485 168.485 -0.0808183 169.087 0.076712C169.688 0.234242 170.203 0.623603 170.517 1.15937L269.242 169.81C269.556 170.347 269.643 170.985 269.485 171.586C269.327 172.187 268.937 172.7 268.401 173.014ZM14.2589 90.7159C13.9369 90.9042 13.7029 91.2125 13.6082 91.5729C13.5136 91.9333 13.5659 92.3165 13.7539 92.6383L112.479 261.289C112.668 261.611 112.976 261.844 113.337 261.939C113.698 262.033 114.082 261.981 114.405 261.793L267.927 172.205C268.249 172.017 268.483 171.709 268.578 171.348C268.673 170.988 268.62 170.605 268.432 170.283L169.707 1.63211C169.519 1.31063 169.21 1.077 168.849 0.982479C168.488 0.887959 168.104 0.940267 167.782 1.12793L14.2589 90.7159Z" fill="#3F3D56"/>
<path d="M112.944 107.511L74.867 129.731C74.3296 130.043 73.69 130.131 73.0884 129.973C72.4868 129.816 71.9723 129.426 71.6578 128.89L49.4033 90.8732C49.09 90.3368 49.0027 89.6981 49.1605 89.0974C49.3183 88.4968 49.7083 87.9831 50.2449 87.6691L88.3218 65.4495C88.8591 65.1367 89.4987 65.0496 90.1003 65.2071C90.702 65.3646 91.2164 65.754 91.5309 66.2897L113.785 104.307C114.099 104.843 114.186 105.482 114.028 106.083C113.87 106.683 113.48 107.197 112.944 107.511ZM50.7184 88.478C50.3964 88.6664 50.1624 88.9746 50.0677 89.335C49.9731 89.6954 50.0255 90.0786 50.2134 90.4005L72.468 128.418C72.6567 128.739 72.9654 128.973 73.3263 129.067C73.6873 129.162 74.0711 129.11 74.3935 128.922L112.47 106.702C112.792 106.514 113.026 106.206 113.121 105.845C113.216 105.485 113.163 105.102 112.975 104.78L90.7208 66.7625C90.5321 66.441 90.2234 66.2074 89.8624 66.1129C89.5015 66.0184 89.1177 66.0707 88.7953 66.2583L50.7184 88.478Z" fill="#F2F2F2"/>
<path d="M104.729 118.544L66.6526 140.764C66.169 141.046 65.5933 141.124 65.0519 140.982C64.5104 140.84 64.0474 140.49 63.7644 140.008L41.5098 101.991C41.2279 101.508 41.1493 100.933 41.2913 100.392C41.4333 99.8518 41.7843 99.3895 42.2672 99.107L80.3441 76.8873C80.8277 76.6058 81.4034 76.5274 81.9449 76.6691C82.4863 76.8109 82.9493 77.1613 83.2323 77.6435L105.487 115.661C105.769 116.144 105.847 116.718 105.705 117.259C105.563 117.8 105.212 118.262 104.729 118.544Z" fill="url(#paint0_linear_47:19)"/>
<path d="M196.635 89.8728L77.5431 159.368C77.0597 159.651 76.4838 159.729 75.9421 159.588C75.4005 159.446 74.9375 159.095 74.6549 158.612C74.3723 158.13 74.2934 157.555 74.4355 157.014C74.5775 156.473 74.9289 156.011 75.4124 155.729L194.504 86.2329C194.743 86.0932 195.008 86.0019 195.283 85.9644C195.557 85.9268 195.837 85.9436 196.105 86.0138C196.373 86.084 196.625 86.2063 196.846 86.3736C197.067 86.541 197.252 86.7501 197.392 86.9891C197.532 87.2281 197.623 87.4923 197.661 87.7666C197.699 88.0409 197.682 88.3198 197.612 88.5876C197.541 88.8554 197.419 89.1067 197.251 89.3272C197.084 89.5477 196.874 89.7331 196.635 89.8728Z" fill="#CCCCCC"/>
<path d="M175.214 119.193L84.8823 171.906C84.643 172.046 84.3784 172.137 84.1037 172.174C83.829 172.212 83.5496 172.195 83.2814 172.125C82.7397 171.983 82.2767 171.632 81.9941 171.15C81.7116 170.667 81.6326 170.092 81.7747 169.551C81.9167 169.01 82.2681 168.548 82.7516 168.266L173.083 115.553C173.322 115.414 173.587 115.322 173.862 115.285C174.136 115.247 174.416 115.264 174.684 115.334C174.952 115.404 175.204 115.527 175.425 115.694C175.646 115.861 175.831 116.07 175.971 116.309C176.111 116.548 176.202 116.813 176.24 117.087C176.278 117.361 176.261 117.64 176.191 117.908C176.12 118.176 175.998 118.427 175.83 118.648C175.663 118.868 175.453 119.053 175.214 119.193V119.193Z" fill="#CCCCCC"/>
<path d="M169.24 44.0032L116.581 74.7326C116.097 75.0147 115.521 75.0935 114.98 74.9517C114.438 74.8098 113.975 74.459 113.692 73.9763C113.41 73.4936 113.331 72.9186 113.473 72.3778C113.615 71.8371 113.966 71.3747 114.45 71.0926L167.109 40.3633C167.593 40.0811 168.169 40.0023 168.71 40.1442C168.979 40.2144 169.23 40.3367 169.451 40.504C169.672 40.6714 169.858 40.8805 169.998 41.1195C170.138 41.3585 170.229 41.6227 170.267 41.897C170.304 42.1712 170.287 42.4502 170.217 42.718C170.147 42.9858 170.024 43.2371 169.857 43.4576C169.689 43.6781 169.48 43.8635 169.24 44.0032Z" fill="#CCCCCC"/>
<path d="M163.437 64.2097L123.92 87.2701C123.68 87.4098 123.416 87.501 123.141 87.5386C122.866 87.5762 122.587 87.5594 122.319 87.4892C122.051 87.419 121.799 87.2967 121.578 87.1293C121.357 86.962 121.171 86.7528 121.032 86.5138C120.892 86.2748 120.8 86.0107 120.763 85.7364C120.725 85.4621 120.742 85.1831 120.812 84.9154C120.882 84.6476 121.005 84.3963 121.173 84.1758C121.34 83.9552 121.55 83.7698 121.789 83.6302L161.307 60.5698C161.79 60.2877 162.366 60.2089 162.908 60.3507C163.449 60.4925 163.912 60.8434 164.195 61.3261C164.477 61.8087 164.556 62.3837 164.414 62.9245C164.272 63.4653 163.921 63.9276 163.437 64.2097Z" fill="#CCCCCC"/>
<path d="M211.313 114.948L92.2218 184.443C91.7384 184.725 91.1625 184.804 90.6209 184.662C90.0792 184.52 89.6162 184.17 89.3336 183.687C89.0511 183.204 88.9721 182.629 89.1142 182.088C89.2562 181.548 89.6076 181.085 90.0911 180.803L209.183 111.308C209.666 111.025 210.242 110.947 210.784 111.088C211.325 111.23 211.788 111.581 212.071 112.064C212.353 112.547 212.432 113.122 212.29 113.662C212.148 114.203 211.797 114.665 211.313 114.948V114.948Z" fill="#CCCCCC"/>
<path d="M189.892 144.268L99.5611 196.981C99.3217 197.121 99.0571 197.212 98.7824 197.25C98.5077 197.287 98.2283 197.27 97.9601 197.2C97.6919 197.13 97.4402 197.008 97.2193 196.84C96.9985 196.673 96.8128 196.464 96.6729 196.225C96.533 195.986 96.4416 195.722 96.4039 195.447C96.3663 195.173 96.3831 194.894 96.4534 194.626C96.5238 194.359 96.6463 194.107 96.8139 193.887C96.9815 193.666 97.1909 193.481 97.4303 193.341L187.762 140.628C188.001 140.489 188.266 140.397 188.54 140.36C188.815 140.322 189.094 140.339 189.363 140.409C189.631 140.48 189.883 140.602 190.103 140.769C190.324 140.936 190.51 141.146 190.65 141.385C190.79 141.624 190.881 141.888 190.919 142.162C190.956 142.436 190.94 142.715 190.869 142.983C190.799 143.251 190.677 143.502 190.509 143.723C190.341 143.943 190.132 144.129 189.892 144.268V144.268Z" fill="#CCCCCC"/>
<path d="M225.992 140.023L106.9 209.519C106.661 209.659 106.396 209.75 106.122 209.787C105.847 209.825 105.568 209.808 105.299 209.738C105.031 209.668 104.779 209.546 104.559 209.378C104.338 209.211 104.152 209.002 104.012 208.763C103.872 208.524 103.781 208.259 103.743 207.985C103.706 207.711 103.722 207.432 103.793 207.164C103.863 206.896 103.986 206.645 104.153 206.425C104.321 206.204 104.53 206.019 104.77 205.879L223.861 136.383C224.101 136.244 224.365 136.152 224.64 136.115C224.915 136.077 225.194 136.094 225.462 136.164C225.73 136.234 225.982 136.357 226.203 136.524C226.424 136.691 226.61 136.901 226.749 137.14C226.889 137.379 226.981 137.643 227.018 137.917C227.056 138.191 227.039 138.47 226.969 138.738C226.898 139.006 226.776 139.257 226.608 139.478C226.441 139.698 226.231 139.884 225.992 140.023Z" fill="#CCCCCC"/>
<path d="M233.331 152.561L114.24 222.056C114 222.196 113.736 222.287 113.461 222.325C113.186 222.363 112.907 222.346 112.639 222.276C112.37 222.205 112.119 222.083 111.898 221.916C111.677 221.748 111.491 221.539 111.351 221.3C111.211 221.061 111.12 220.797 111.082 220.523C111.045 220.249 111.062 219.97 111.132 219.702C111.202 219.434 111.325 219.183 111.492 218.962C111.66 218.742 111.869 218.556 112.109 218.417L231.2 148.921C231.44 148.781 231.704 148.69 231.979 148.652C232.254 148.615 232.533 148.632 232.801 148.702C233.07 148.772 233.321 148.894 233.542 149.062C233.763 149.229 233.949 149.438 234.089 149.677C234.228 149.916 234.32 150.18 234.358 150.455C234.395 150.729 234.378 151.008 234.308 151.276C234.238 151.543 234.115 151.795 233.948 152.015C233.78 152.236 233.571 152.421 233.331 152.561Z" fill="#CCCCCC"/>
<path d="M194.819 201.368C196.474 199.423 197.963 197.343 199.272 195.151C200.445 193.173 201.597 191.058 201.856 188.739C201.988 187.751 201.885 186.746 201.555 185.805C201.225 184.865 200.677 184.015 199.956 183.326C199.259 182.685 198.376 182.282 197.435 182.175C196.493 182.068 195.542 182.263 194.719 182.732C193.886 183.209 193.198 183.902 192.728 184.738C192.257 185.574 192.022 186.521 192.047 187.48C192.114 188.535 192.42 189.562 192.94 190.483C193.46 191.404 194.182 192.196 195.052 192.799C198.572 195.346 204.069 195.213 207.821 193.275C212.047 191.092 214.231 185.382 210.911 181.473C210.22 180.66 209.071 181.569 209.244 182.446C209.463 183.63 210.127 184.687 211.101 185.399C212.074 186.111 213.283 186.425 214.48 186.278C215.678 186.13 216.774 185.531 217.544 184.604C218.314 183.677 218.701 182.491 218.625 181.288L217.132 182.159C218.962 182.968 220.973 183.282 222.963 183.069C224.953 182.856 226.851 182.123 228.467 180.945C229.267 180.365 229.981 179.676 230.589 178.898C231.319 177.947 232.546 177.332 233.54 176.646L240.701 171.706C241.754 170.979 240.753 169.248 239.691 169.98L233.205 174.454C232.125 175.2 231.037 175.936 229.963 176.692C229.195 177.231 228.722 178.103 228.024 178.744C226.701 179.932 225.067 180.72 223.312 181.016C221.558 181.312 219.755 181.105 218.115 180.417C217.962 180.335 217.791 180.294 217.617 180.297C217.444 180.3 217.274 180.347 217.124 180.435C216.974 180.522 216.849 180.647 216.761 180.796C216.674 180.945 216.626 181.115 216.622 181.288C216.701 182.006 216.493 182.725 216.043 183.29C215.594 183.855 214.938 184.22 214.22 184.305C213.503 184.39 212.78 184.188 212.211 183.743C211.641 183.299 211.27 182.648 211.179 181.932L209.513 182.905C211.654 185.426 210.228 189.294 207.761 190.986C205.001 192.878 200.924 193.206 197.813 192.03C197.05 191.768 196.35 191.352 195.755 190.807C195.161 190.262 194.685 189.601 194.358 188.865C194.055 188.199 193.968 187.456 194.11 186.739C194.253 186.022 194.617 185.368 195.152 184.868C195.615 184.411 196.238 184.152 196.889 184.145C197.54 184.138 198.168 184.384 198.641 184.831C199.156 185.356 199.534 185.999 199.741 186.704C199.948 187.409 199.979 188.155 199.83 188.874C199.509 190.877 198.4 192.724 197.369 194.434C196.191 196.383 194.859 198.235 193.386 199.972C192.56 200.948 193.985 202.354 194.819 201.368L194.819 201.368Z" fill="url(#paint1_linear_47:19)"/>
<path d="M245.144 247.31L241.479 255.872C241.196 256.534 240.706 257.085 240.082 257.445C239.458 257.804 238.735 257.952 238.019 257.866L212.964 254.844L212.825 254.827L212.738 254.937C212.179 255.644 211.417 256.164 210.554 256.429C209.69 256.693 208.767 256.689 207.907 256.417C207.046 256.144 206.289 255.617 205.736 254.904C205.183 254.192 204.86 253.329 204.811 252.429C204.761 251.529 204.988 250.636 205.459 249.867C205.931 249.099 206.626 248.492 207.451 248.127C208.277 247.763 209.194 247.658 210.081 247.826C210.968 247.995 211.782 248.429 212.415 249.07C212.578 249.238 212.728 249.418 212.863 249.609L212.94 249.718L213.073 249.715L235.25 249.173L235.394 249.17L235.463 249.043L237.945 244.515L245.144 247.31Z" fill="#F4F7FA" stroke="black" stroke-width="0.5"/>
<path d="M284.636 383.114H277.815L274.408 355.532L284.637 355.533L284.636 383.114Z" fill="#F4F7FA" stroke="black" stroke-width="0.5"/>
<path d="M229.395 357.51L218.542 382.874L212.27 380.199L219.989 353.498L229.395 357.51Z" fill="#F4F7FA" stroke="black" stroke-width="0.5"/>
<path d="M264.355 264.908L249.18 263.287L249.679 255.219L275.537 254.182L280.083 266.588L264.355 264.908L264.329 265.156L264.355 264.908Z" fill="#F4F7FA" stroke="black" stroke-width="0.5"/>
<path d="M252.899 218.784L252.975 218.759L253.023 218.694L255.991 214.631L270.536 215.49L272.652 220.222L272.69 220.307L272.774 220.346L280.531 224.006L279.325 246.377L279.324 246.39L279.325 246.402L280.198 264.982L248.648 263.38L242.72 222.115L252.899 218.784Z" fill="#F4F7FA" stroke="black" stroke-width="0.5"/>
<path d="M244.489 252.112L234.399 248.082C234.579 247.329 238.942 229.118 239.53 226.147L239.53 226.147C240.113 223.204 242.197 222.354 242.352 222.295L246.294 223.493L248.102 237.68L244.489 252.112Z" fill="#F4F7FA" stroke="black" stroke-width="0.5"/>
<path d="M240.199 292.407C240.439 292.476 240.439 292.476 240.439 292.476L240.439 292.476L240.44 292.473L240.443 292.464L240.453 292.428L240.494 292.285L240.653 291.737C240.79 291.261 240.989 290.575 241.235 289.731C241.726 288.042 242.405 285.723 243.152 283.199C244.646 278.149 246.414 272.285 247.514 269.016L247.521 268.996L247.524 268.974L248.817 260.425L279.929 263.863C279.939 263.878 279.949 263.894 279.961 263.912C280.023 264.01 280.115 264.156 280.231 264.35C280.463 264.739 280.794 265.32 281.182 266.083C281.959 267.608 282.969 269.863 283.896 272.772C285.75 278.591 287.274 287.027 285.944 297.487L285.942 297.505L285.942 297.523L287.146 376.231L273.562 376.926L261.825 297.527L261.704 296.711L261.351 297.457L240.693 341.106L240.688 341.118L240.683 341.13L240.919 341.213C240.683 341.13 240.683 341.13 240.683 341.13L240.683 341.131L240.682 341.134L240.679 341.144L240.665 341.183L240.61 341.339C240.561 341.476 240.489 341.678 240.396 341.936C240.209 342.452 239.937 343.195 239.595 344.098C238.913 345.905 237.955 348.356 236.852 350.932C235.748 353.509 234.501 356.208 233.241 358.512C231.976 360.825 230.714 362.711 229.586 363.688L229.54 363.728L229.517 363.786L223.949 377.98L210.387 375.202L232.747 313.598L232.747 313.598L240.434 292.493L240.437 292.485L240.439 292.476L240.199 292.407Z" fill="#F4F7FA" stroke="black" stroke-width="0.5"/>
<path d="M281.474 245.019L288.421 241.648L292.218 250.154C292.512 250.81 292.583 251.544 292.423 252.245C292.263 252.946 291.88 253.576 291.33 254.041L272.075 270.331L271.968 270.422L271.99 270.56C272.129 271.451 271.993 272.362 271.6 273.174C271.208 273.985 270.577 274.658 269.792 275.103C269.007 275.548 268.105 275.744 267.205 275.664C266.306 275.585 265.452 275.234 264.758 274.658C264.063 274.082 263.561 273.309 263.317 272.442C263.073 271.574 263.1 270.653 263.393 269.801C263.687 268.948 264.233 268.206 264.96 267.671C265.687 267.136 266.559 266.835 267.461 266.808C267.695 266.802 267.929 266.815 268.161 266.846L268.293 266.864L268.382 266.764L283.062 250.159L283.158 250.051L283.112 249.914L281.474 245.019Z" fill="#F4F7FA" stroke="black" stroke-width="0.5"/>
<path d="M281.629 224.203L281.629 224.203L281.639 224.207C282.477 224.544 283.255 225.613 283.897 227.529L283.897 227.529L283.898 227.532L289.584 243.702L281.791 251.179L275.841 237.206L278.198 227.322L280.695 224.171C280.836 224.119 280.985 224.093 281.135 224.095C281.306 224.096 281.474 224.133 281.629 224.203Z" fill="#F4F7FA" stroke="black" stroke-width="0.5"/>
<path d="M249.931 209.044V198.201C249.931 194.348 251.464 190.652 254.193 187.927C256.922 185.203 260.624 183.672 264.483 183.672C268.343 183.672 272.044 185.203 274.773 187.927C277.502 190.652 279.035 194.348 279.035 198.201V209.044C279.035 209.561 278.829 210.057 278.462 210.423C278.096 210.789 277.599 210.995 277.08 210.995H251.886C251.368 210.995 250.871 210.789 250.504 210.423C250.138 210.057 249.932 209.561 249.931 209.044Z" fill="#7247FF"/>
<path d="M271.912 200.091C271.912 205.835 267.248 210.493 261.493 210.493C255.738 210.493 251.074 205.835 251.074 200.091C251.074 194.346 255.738 189.688 261.493 189.688C267.248 189.688 271.912 194.346 271.912 200.091Z" fill="#F4F7FA" stroke="black" stroke-width="0.5"/>
<path d="M246.489 199.069C246.492 196.022 247.706 193.1 249.864 190.946C252.022 188.791 254.948 187.579 258 187.576H260.172C263.224 187.579 266.15 188.791 268.308 190.946C270.466 193.1 271.68 196.022 271.683 199.069V199.286H267.093L265.528 194.909L265.215 199.286H262.842L262.053 197.077L261.895 199.286H246.489L246.489 199.069Z" fill="#7247FF"/>
<path d="M260.443 212.215C260.228 211.923 260.099 211.577 260.072 211.216C260.045 210.855 260.12 210.493 260.29 210.173C262.592 205.802 265.814 197.726 261.537 192.745L261.229 192.387H273.647V211.002L262.366 212.989C262.252 213.009 262.136 213.019 262.021 213.02C261.713 213.02 261.409 212.947 261.135 212.807C260.861 212.667 260.623 212.464 260.443 212.215Z" fill="#7247FF"/>
<path d="M134.044 355.462L122.05 379.271L115.904 377.078L124.819 352.171L134.044 355.462Z" fill="#F4F7FA" stroke="black" stroke-width="0.5"/>
<path d="M168.481 357.037L165.213 383.487L158.686 383.487L158.685 357.038L168.481 357.037Z" fill="#F4F7FA" stroke="black" stroke-width="0.5"/>
<path d="M155.357 210.894C156.448 211.968 157.269 213.208 157.584 214.627L142.857 211.385L145.663 205.849C145.738 205.869 145.835 205.896 145.951 205.93C146.26 206.019 146.703 206.155 147.238 206.337C148.309 206.703 149.747 207.258 151.214 208.016C152.683 208.773 154.173 209.73 155.357 210.894Z" fill="#F4F7FA" stroke="black" stroke-width="0.5"/>
<path d="M116.59 365.005L138.424 326.452L138.469 326.373L138.453 326.284L130.227 280.455L164.543 279.332L173.204 325.588L167.803 375.359L156.429 375.703L154.725 322.38L154.234 322.321L151.389 332.548L129.252 369.952L116.59 365.005Z" fill="#F4F7FA" stroke="black" stroke-width="0.5"/>
<path d="M125.607 288.506L131.887 259.434L131.892 259.409L131.892 259.384L132.178 232.341V232.339C132.178 226.664 134.048 221.728 136.054 218.111C137.057 216.303 138.092 214.827 138.94 213.756C139.794 212.677 140.445 212.025 140.679 211.851L140.75 211.798L140.772 211.712C140.94 211.052 141.25 210.436 141.68 209.908C142.11 209.38 142.65 208.953 143.262 208.655C144.455 208.116 145.794 208.165 146.871 208.367C147.945 208.569 148.726 208.918 148.781 208.943L148.789 208.947L148.797 208.95L157.928 212.368L157.933 212.384C157.933 212.383 157.934 212.386 157.936 212.394L157.945 212.422L157.976 212.521C158.002 212.606 158.04 212.727 158.087 212.882C158.183 213.192 158.319 213.638 158.491 214.199C158.834 215.321 159.319 216.907 159.897 218.8C161.054 222.587 162.586 227.605 164.115 232.613C165.643 237.621 167.168 242.618 168.311 246.364L169.692 250.888L170.078 252.155L170.18 252.489L170.203 252.565L170.202 252.625L170.196 252.917L170.172 254.025C170.151 254.981 170.122 256.347 170.085 257.99C170.012 261.276 169.912 265.669 169.804 270.098C169.696 274.527 169.58 278.991 169.474 282.419C169.422 284.133 169.372 285.587 169.327 286.649C169.305 287.179 169.284 287.61 169.265 287.926C169.254 288.094 169.245 288.223 169.236 288.315L169.23 288.316C169.104 288.335 168.918 288.362 168.678 288.398C168.198 288.468 167.506 288.569 166.654 288.69C164.949 288.932 162.607 289.254 160.053 289.577C154.94 290.223 149.001 290.866 145.641 290.866C134.186 290.866 126.69 288.801 125.74 288.54C125.684 288.524 125.651 288.515 125.641 288.513M125.607 288.506L125.641 288.513M125.607 288.506L125.641 288.513M125.607 288.506L125.641 288.513M125.641 288.513L125.641 288.513L125.589 288.757L125.641 288.513ZM169.354 288.55C169.32 288.555 169.278 288.561 169.229 288.569C169.222 288.558 169.216 288.546 169.211 288.534L169.354 288.55Z" fill="#F4F7FA" stroke="black" stroke-width="0.5"/>
<path d="M167.225 191.193C167.225 197.943 161.745 203.415 154.984 203.415C148.223 203.415 142.743 197.943 142.743 191.193C142.743 184.444 148.223 178.972 154.984 178.972C161.745 178.972 167.225 184.444 167.225 191.193Z" fill="#F4F7FA" stroke="black" stroke-width="0.5"/>
<path opacity="0.2" d="M165.854 250.891L162.789 264.396L142.03 235.478L165.854 250.891Z" fill="#F4F7FA" stroke="black" stroke-width="0.5"/>
<path d="M209.472 255.023L209.417 255.067L209.415 255.068C208.829 255.53 208.149 255.859 207.422 256.031C206.695 256.203 205.939 256.213 205.207 256.062C204.476 255.911 203.786 255.601 203.188 255.155C202.589 254.708 202.096 254.137 201.742 253.48L201.658 253.323L201.483 253.351L183.132 256.284L186.955 247.833L204.046 246.372L204.089 246.369L204.128 246.351C205.273 245.831 206.57 245.749 207.772 246.12C208.974 246.491 209.998 247.289 210.65 248.364C211.302 249.438 211.536 250.714 211.309 251.949C211.086 253.161 210.433 254.252 209.472 255.023Z" fill="#F4F7FA" stroke="black" stroke-width="0.5"/>
<path d="M188.129 255.731L188.009 247.31L194.313 246.693L196.084 255.59L188.129 255.731Z" fill="#F4F7FA" stroke="black" stroke-width="0.5"/>
<path d="M170.161 242.617L170.103 242.503L160.292 223.396L160.514 223.282L160.292 223.396C159.306 221.475 157.653 219.978 155.642 219.185C153.632 218.392 151.401 218.356 149.366 219.085C147.331 219.814 145.631 221.257 144.584 223.145C143.537 225.033 143.214 227.237 143.675 229.346L170.161 242.617ZM170.161 242.617L170.288 242.636L189.921 245.599L192.975 258.836L160.342 255.935L143.717 229.538L143.675 229.346L170.161 242.617Z" fill="#F4F7FA" stroke="black" stroke-width="0.5"/>
<path d="M144.344 202.021L154.712 202.393C155.344 202.415 157.059 195.606 157.284 194.193C157.461 193.274 157.968 192.45 158.709 191.876C159.45 191.302 160.375 191.017 161.312 191.074C162.088 191.147 164.045 189.7 166.064 187.986C169.898 184.731 169.699 178.619 165.487 175.869C165.372 175.794 165.259 175.725 165.148 175.663C162.491 174.179 159.383 173.68 156.339 173.642C153.579 173.607 150.741 173.954 148.309 175.259C143.95 177.597 141.63 182.707 141.427 187.643C141.223 192.579 142.808 197.406 144.606 202.009" fill="#7247FF"/>
</g>
<defs>
<linearGradient id="paint0_linear_47:19" x1="40.874" y1="79.7585" x2="108.154" y2="80.231" gradientUnits="userSpaceOnUse">
<stop stop-color="#4614E8"/>
<stop offset="1" stop-color="#BCA7FF"/>
</linearGradient>
<linearGradient id="paint1_linear_47:19" x1="191.78" y1="171.366" x2="242.955" y2="171.919" gradientUnits="userSpaceOnUse">
<stop stop-color="#4614E8"/>
<stop offset="1" stop-color="#BCA7FF"/>
</linearGradient>
</defs>
</svg>
